# Blender v2.72 (sub 0) OBJ File: ''
# www.blender.org
o Plane
v 0.000000 0.463197 0.277083
v 1.231130 0.000000 1.069395
v 0.000000 0.000000 -1.965767
v 0.000000 -0.463197 0.277083
v 0.000000 0.000000 0.868270
v -1.231130 0.000000 1.069395
vn 0.446200 0.876400 -0.181000
vn -0.100200 0.783200 0.613600
vn -0.446200 0.876400 -0.181000
vn 0.100200 0.783200 0.613600
vn 0.446200 -0.876400 -0.181000
vn -0.100200 -0.783200 0.613600
vn -0.446200 -0.876400 -0.181000
vn 0.100200 -0.783200 0.613600
s off
f 1//1 2//1 3//1
f 1//2 5//2 2//2
f 1//3 3//3 6//3
f 1//4 6//4 5//4
f 4//5 3//5 2//5
f 4//6 2//6 5//6
f 4//7 6//7 3//7
f 4//8 5//8 6//8
